<svg id="Layer_1" data-name="Layer 1" xmlns="http://www.w3.org/2000/svg" viewBox="0 0 1024 1024"><title>SkyleEye</title><ellipse cx="512" cy="512" rx="350" ry="350.03" fill="#fff"/><path d="M747.6,494.83c-14-10.46-33.39-8.26-43.38,4.9s-6.75,32.32,7.23,42.78,33.39,8.26,43.37-4.9S761.57,505.29,747.6,494.83Z" fill="#fff" fill-rule="evenodd"/><ellipse cx="512" cy="512" rx="327.36" ry="327.39" fill="#111"/><path d="M396.39,651.79l64.35,27.69,11.45-27.89c-33.55-15.41-52.32-29.22-62.42-39.78l-43.35,43.6,14.65,15.15Z" fill="#039be5" fill-rule="evenodd"/><path d="M661.17,529.31c-2.08,18.08-5.48,27.54-9.73,38.46l59.1,28.6,3.8,10.14,17.53,8.37,7.31-18.11-15.06-8.71C729.49,573,732,556,733,537.82l-50.27-5.75,1.37-33.93L640,501.91,640,526.6Z" fill="#26a69a" fill-rule="evenodd"/><path d="M584.27,618.45l-6-9-3.14,2.45L600,654.11l12.62,2.56,45.7,60.44,17.54-14-17.51-52.69,17.41-20.6,12.66-21.12,49.88,26.86-19.17,26.92,19.66,14.8,2.52,8.92c30.31-47.48,45.41-82.94,51.78-124.49l-55.47-9.82,2-12,21.19,2.5a309.74,309.74,0,0,0,1.2-49L795.82,491c-.14-11.51-3.45-28.08-5.35-39.55l-56.11,11.94-17.51-45.94L648,450.11l6.64,15,20.65-5.85c3.55,10.24,6.28,20.82,6.59,32.51.79,13.93.91,25.74-.88,40.07l52,6.65c-3.15,16.45-7.13,34-12.88,50.9l19.09,7.38-7.31,18.11L717,607.67l-4.84-13.73-58.46-25.06c-4.2,9.73-9.16,20.33-15.68,28.46l14.82,10.25-26.15,29-25.5-30.76Z" fill="#039be5" fill-rule="evenodd"/><path d="M627.59,413.53l-13.41-13L645,361.21,677,347.61l37.48-38.69c5.55,5.1,10.21,9.66,14,15.55L701,347.36,692.6,363,705,376.7l40.81-29.43c14.76,22.3,34.24,55,44.65,104.15L732,465.33c-3.79-17.32-9.92-33.28-15.15-47.92L648,450.11l-13-23.35L617.48,440l-8.67-10.23Z" fill="#ecf0f1" fill-rule="evenodd"/><path d="M270.84,490.19,226.51,487,229.68,464l39.54,6.27a225.21,225.21,0,0,1,16.15-57.37l17.39,1.81,15.43-28.52L271.11,357c21.39-33.73,45.85-60.31,78-81.26L374,310.46,413.59,290,455,374.44l-16.42,10.44-14.87-22.21c-14,10.11-25.63,19.24-35,32.93L407,412.68Q389.2,431.85,379.15,469l-81-21.94-6.93,26.85-16.93.14Z" fill="#9e0000" fill-rule="evenodd"/><path d="M371,516.35c1.76-17.55,3.95-32.82,7.58-47.56L292.1,443.62l-6.94,29.24-15.93-2.59L267,488.16a395.11,395.11,0,0,0-.08,46.28l-39.48,3c.91,24.33,4.13,39.51,11.19,64.21l55.72-17.28L282.23,518.3S363.75,516.31,371,516.35Z" fill="#039be5" fill-rule="evenodd"/><path d="M257.37,648.32c1,4.47,11.76,22.35,21,35.35,24.29,33,58.27,65.09,93.85,84.38,9.11-15.94,14.73-27.33,22.79-41.45l-42.38-28.78c4-17.12,11.55-17.86,22.77-31.22-2.84-9.84.54-6.22-8.11-12l-25.81,6.92c-10.09-14-13-16.94-21.36-30.12L309,620.1Z" fill="#26a69a" fill-rule="evenodd"/><path d="M467.87,649.57c11.87,4.3,12.34,4.44,29.77,8.33L496,683.19a159.38,159.38,0,0,1-23.09-4.4l-12.51,54a206.33,206.33,0,0,0,43.11,7.84l-.75,23c-16.21-.63-30.33-3-48.23-7.3L445,796.13c-7.42-2-13.9-2.17-21-5.15l18.94-59.58-22.22,13.9-28.2-14.26a189.65,189.65,0,0,1-46.73-34.36l-28,31.24c-6.28-5.79-12.09-11.86-17.77-18l12.47-3,56-53.47,9.37,9.07-2.13,2.34,2.5,2.39,22.15-25.55c18.22,13.93,36.06,25.56,59.37,33.27l6.93-19.74Z" fill="#9e0000" fill-rule="evenodd"/><path d="M228.54,553.24l.74-14.87,37.83-3.68a457.2,457.2,0,0,1-.09-46.54l-33-2.52-5.61-15.25C225.38,490.9,224,517.15,228.54,553.24Z" fill="#26a69a" fill-rule="evenodd"/><path d="M739.82,635.52l-52.31-28.65-13.27,22.9,46.35,34.76C730.06,653.34,733.9,645,739.82,635.52Z" fill="#111" fill-rule="evenodd"/><path d="M626,639.51c12-11.68,18.39-20.3,28.43-32.09L636.77,595l-15.24,18.72-22.95-19.66-6.12,6.46C599.85,608.48,620.44,631.94,626,639.51Z" fill="#ecf0f1" fill-rule="evenodd"/><path d="M544.15,681.39l-8.46-43.45a49.79,49.79,0,0,1-20.06,1.43L517,684.24Z" fill="#26a69a" fill-rule="evenodd"/><polygon points="535.69 637.95 541.22 636.39 545.63 656.3 573.66 646.93 598.81 702.85 587.53 704.92 568.22 678 543.54 683.57 535.69 637.95" fill="#ecf0f1" fill-rule="evenodd"/><path d="M543.06,680.75a237,237,0,0,0,25.8-7l17.63,27.92,17.85,45.86c-33,11-55.74,17.27-101.67,16.07l.69-23c15.68,1.37,31.47-1.52,48.07-5.3Z" fill="#26a69a" fill-rule="evenodd"/><polygon points="573.66 646.93 603.86 719.17 634.52 701.35 646.37 719.5 649.34 723.33 658.3 717.11 614.47 654.63 601.26 653.52 575.75 611.95 569.41 616.59 582.97 643 573.66 646.93" fill="#26a69a" fill-rule="evenodd"/><path d="M616.76,718.64,642.92,772c-8,4.87-15.49,8.12-25.41,11.8L589.6,710.12l-3.61-8,9.22-3.63,9.23,21.12Z" fill="#039be5" fill-rule="evenodd"/><path d="M741.62,685.78c-6,8.31-14.62,17.86-20.72,25l-62.76-61L674.65,629,738.6,676.7Z" fill="#26a69a" fill-rule="evenodd"/><path d="M375.32,545.24c3.7,14.22,9.9,28.18,17.09,42.06l-75.62,46.34L309,620.1l-14.43-34.73c-8.7-25.29-10.79-44.87-12.35-67.07L343,515.76A160.87,160.87,0,0,0,348,553Z" fill="#9e0000" fill-rule="evenodd"/><path d="M249.54,397.81A284,284,0,0,1,271.11,357l32.48,20-18.24,36h0Z" fill="#26a69a" fill-rule="evenodd"/><path d="M553.83,736.19c-8.19,1.59-16.56,3.12-24.73,4l1,23.17a241.46,241.46,0,0,0,28.73-3.27Z" fill="#ecf0f1" fill-rule="evenodd"/><path d="M335.94,284.49a161.28,161.28,0,0,1,24.6-17.36l23.56,35.95-19.58,13.15Z" fill="#111" fill-rule="evenodd"/><path d="M570.52,617.07,584,643c-6.34,5.33-16.56,12.12-38,15.78L541.58,638c-8.41,1.31-16.82,2.7-25.91,2.78L517,683.47c9.63-.08,17.55-1.32,26.1-2.72l10.77,55.44c-41.47,9-68.35,4.42-94-2.15l13.08-55.24c7.69,2.44,15.93,2.79,23.12,4l1.59-24.89c-32.8-2.57-68.69-21.53-88.79-45.17l-42.75,43-27.47,7.51a84.91,84.91,0,0,1-5.71-6.85,231.52,231.52,0,0,1-16.13-22.8L390,587.14c-11.23-18.59-10.74-21.12-16.13-40.92L348,553A153.08,153.08,0,0,1,343,515.76l26.73-1c.58-50.85,15-77.51,35.14-102.72l-19-16.27a123.64,123.64,0,0,1,37.83-33.1L437.42,383c7.21-4.44,11.44-6.85,15.81-9,3.12,6.88,7.25,16,10.84,23.31l5.18-2.24,3.18,6.51,5.41-2.53-9.22-31.61c41-16.17,99.47-9.28,135,19.23l43.21-60.23-13.27-9.21,5.7-8.75L597.78,285l14.73-43.38c35.49,14.24,68.43,32.83,102,67.31L677,347.61l-27.37,17-31.46,34,13.34,14.17-20.6,17.39,7.58,9,20.82-16.07c7.59,13,14,23.9,18.92,38.45a16.93,16.93,0,0,0,.67,2c.46.87,16.26-5.21,16.3-4.28,4.86,12.23,6.94,25.45,6.93,39.39l-39.77,3.09-.58,25.1,23.55,3c-3,31.05-19.55,64-41.47,86.23l-23.64-20.56-3.78,3.4,5.52,7a46.66,46.66,0,0,1-17,13.65l-5.86-8.24Z" fill="#111" fill-rule="evenodd"/><circle cx="453.75" cy="472.77" r="31.34" fill="#ecf0f1"/><path d="M612.19,242c-61.88-26.62-157.12-31.78-251.12,25.92l76.27,115.15a127.57,127.57,0,0,1,17.16-9.71c46.49-21.49,105.75-19.76,149,13.36l43.21-60.23-13.27-9.22,5.71-8.74-41.48-23.41Z" fill="#ecf0f1" fill-rule="evenodd"/><polygon points="437.34 383.07 392 314.76 419.38 299.65 453.23 373.96 437.34 383.07" fill="#039be5" fill-rule="evenodd"/><path d="M482,224.76c-20.93,2.52-55,8.49-86.21,23.36l38.44,84.11,18.91-9-11-31.25,47-15.24Z" fill="#039be5" fill-rule="evenodd"/><path d="M591.71,234.35c-9.19-3.12-29.4-8.33-50.87-10.24l-2.44,35a265.31,265.31,0,0,1,43.08,8Z" fill="#039be5" fill-rule="evenodd"/><path d="M640.25,307.94c-13.46-8.25-27.44-16.2-42.25-23.76l-28,84a104.92,104.92,0,0,1,34.08,19.09l43.85-61.12-13.46-9.35Z" fill="#039be5" fill-rule="evenodd"/><path d="M395.84,248.14c-8.81,4.19-25.58,13.05-34.73,19.85l23,35.08L373.2,310.4l8.11,10.29L392,314.76l27.38-15.11Z" fill="#ecf0f1" fill-rule="evenodd"/><path d="M468.66,367.5a65.76,65.76,0,0,0-15.46,6.41l10.87,23.36,5.18-2.24,3.18,6.51,5.41-2.53Z" fill="#c0e7f1" fill-rule="evenodd"/></svg>